<?xml version="1.0" encoding="UTF-8" standalone="no"?>
<!-- Created with Inkscape (http://www.inkscape.org/) -->

<svg
   version="1.1"
   id="svg2"
   width="364.39868"
   height="384"
   viewBox="0 0 364.39868 384"
   xmlns="http://www.w3.org/2000/svg"
   xmlns:svg="http://www.w3.org/2000/svg">
  <defs
     id="defs6">
    <clipPath
       clipPathUnits="userSpaceOnUse"
       id="clipPath18">
      <path
         d="m 130.448,195.394 c 0,-0.92 0.221,-1.787 0.612,-2.554 v 0 l -17.449,-12.677 c -1.014,0.987 -2.399,1.596 -3.926,1.596 v 0 c -3.112,0 -5.636,-2.523 -5.636,-5.635 v 0 c 0,-3.113 2.524,-5.635 5.636,-5.635 v 0 c 0.308,0 0.61,0.025 0.904,0.073 v 0 l 6.629,-20.402 c -1.782,-0.945 -2.997,-2.82 -2.997,-4.979 v 0 c 0,-3.112 2.522,-5.635 5.635,-5.635 v 0 c 2.81,0 5.141,2.058 5.565,4.749 v 0 h 21.323 c 0.425,-2.691 2.755,-4.749 5.566,-4.749 v 0 c 3.112,0 5.635,2.523 5.635,5.635 v 0 c 0,2.159 -1.215,4.034 -2.997,4.979 v 0 l 6.628,20.402 c 0.294,-0.048 0.597,-0.073 0.905,-0.073 v 0 c 3.113,0 5.635,2.522 5.635,5.635 v 0 c 0,3.112 -2.522,5.635 -5.635,5.635 v 0 c -1.528,0 -2.913,-0.609 -3.927,-1.596 v 0 l -17.448,12.677 c 0.39,0.767 0.612,1.634 0.612,2.554 v 0 c 0,3.112 -2.523,5.635 -5.635,5.635 v 0 c -3.113,0 -5.635,-2.523 -5.635,-5.635 m 9.616,-3.988 17.428,-12.662 c -0.411,-0.783 -0.646,-1.674 -0.646,-2.62 v 0 c 0,-2.179 1.237,-4.068 3.048,-5.006 v 0 l -6.624,-20.385 c -0.312,0.054 -0.633,0.084 -0.96,0.084 v 0 c -2.811,0 -5.141,-2.059 -5.566,-4.75 v 0 h -21.323 c -0.424,2.691 -2.755,4.75 -5.565,4.75 v 0 c -0.328,0 -0.648,-0.03 -0.961,-0.084 v 0 l -6.624,20.385 c 1.811,0.938 3.049,2.827 3.049,5.006 v 0 c 0,0.946 -0.234,1.837 -0.646,2.62 v 0 l 17.427,12.662 c 1.02,-1.018 2.427,-1.647 3.982,-1.647 v 0 c 1.554,0 2.962,0.629 3.981,1.647"
         id="path16" />
    </clipPath>
    <linearGradient
       x1="0"
       y1="0"
       x2="1"
       y2="0"
       gradientUnits="userSpaceOnUse"
       gradientTransform="matrix(64.067047,0,0,-64.067047,104.0492,170.28755)"
       spreadMethod="pad"
       id="linearGradient34">
      <stop
         style="stop-opacity:1;stop-color:#8a4198"
         offset="0"
         id="stop24" />
      <stop
         style="stop-opacity:1;stop-color:#8a4198"
         offset="0.00558659"
         id="stop26" />
      <stop
         style="stop-opacity:1;stop-color:#5d6bb1"
         offset="0.513967"
         id="stop28" />
      <stop
         style="stop-opacity:1;stop-color:#67cdf5"
         offset="0.994413"
         id="stop30" />
      <stop
         style="stop-opacity:1;stop-color:#67cdf5"
         offset="1"
         id="stop32" />
    </linearGradient>
    <clipPath
       clipPathUnits="userSpaceOnUse"
       id="clipPath44">
      <path
         d="m 128.276,205.07 c 0,-1.275 0.307,-2.476 0.849,-3.539 v 0 l -24.172,-17.562 c -1.407,1.367 -3.325,2.21 -5.442,2.21 v 0 c -4.312,0 -7.806,-3.494 -7.806,-7.806 v 0 c 0,-4.312 3.494,-7.807 7.806,-7.807 v 0 c 0.427,0 0.845,0.035 1.254,0.102 v 0 l 9.184,-28.264 c -2.47,-1.31 -4.153,-3.908 -4.153,-6.898 v 0 c 0,-4.311 3.496,-7.807 7.807,-7.807 v 0 c 3.894,0 7.121,2.851 7.71,6.58 v 0 h 29.54 c 0.588,-3.729 3.816,-6.58 7.71,-6.58 v 0 c 4.311,0 7.806,3.496 7.806,7.807 v 0 c 0,2.99 -1.683,5.588 -4.152,6.898 v 0 l 9.183,28.264 c 0.409,-0.067 0.828,-0.102 1.254,-0.102 v 0 c 4.312,0 7.807,3.495 7.807,7.807 v 0 c 0,4.312 -3.495,7.806 -7.807,7.806 v 0 c -2.117,0 -4.035,-0.843 -5.441,-2.21 v 0 l -24.172,17.562 c 0.541,1.063 0.848,2.264 0.848,3.539 v 0 c 0,4.31 -3.494,7.806 -7.806,7.806 v 0 c -4.312,0 -7.807,-3.496 -7.807,-7.806 m 13.323,-5.526 24.144,-17.541 c -0.571,-1.085 -0.895,-2.32 -0.895,-3.63 v 0 c 0,-3.019 1.714,-5.636 4.222,-6.935 v 0 l -9.176,-28.241 c -0.433,0.075 -0.878,0.115 -1.331,0.115 v 0 c -3.894,0 -7.122,-2.85 -7.71,-6.579 v 0 h -29.54 c -0.589,3.729 -3.816,6.579 -7.71,6.579 v 0 c -0.454,0 -0.899,-0.04 -1.332,-0.115 v 0 l -9.175,28.241 c 2.507,1.299 4.222,3.916 4.222,6.935 v 0 c 0,1.31 -0.324,2.545 -0.896,3.63 v 0 l 24.145,17.541 c 1.413,-1.41 3.362,-2.282 5.516,-2.282 v 0 c 2.153,0 4.103,0.872 5.516,2.282"
         id="path42" />
    </clipPath>
    <linearGradient
       x1="0"
       y1="0"
       x2="1"
       y2="0"
       gradientUnits="userSpaceOnUse"
       gradientTransform="matrix(88.756638,0,0,-88.756638,91.704407,170.28755)"
       spreadMethod="pad"
       id="linearGradient60">
      <stop
         style="stop-opacity:1;stop-color:#8a4198"
         offset="0"
         id="stop50" />
      <stop
         style="stop-opacity:1;stop-color:#8a4198"
         offset="0.00558659"
         id="stop52" />
      <stop
         style="stop-opacity:1;stop-color:#5d6bb1"
         offset="0.513967"
         id="stop54" />
      <stop
         style="stop-opacity:1;stop-color:#67cdf5"
         offset="0.994413"
         id="stop56" />
      <stop
         style="stop-opacity:1;stop-color:#67cdf5"
         offset="1"
         id="stop58" />
    </linearGradient>
    <clipPath
       clipPathUnits="userSpaceOnUse"
       id="clipPath70">
      <path
         d="M 0,288 H 273.299 V 0 H 0 Z"
         id="path68" />
    </clipPath>
    <clipPath
       clipPathUnits="userSpaceOnUse"
       id="clipPath98">
      <path
         d="m 125.58,217.08 c 0,-1.714 0.414,-3.331 1.142,-4.76 v 0 l -32.52,-23.627 c -1.892,1.84 -4.473,2.975 -7.32,2.975 v 0 c -5.8,0 -10.503,-4.703 -10.503,-10.503 v 0 c 0,-5.801 4.703,-10.503 10.503,-10.503 v 0 c 0.575,0 1.137,0.048 1.687,0.136 v 0 l 12.354,-38.022 c -3.322,-1.764 -5.586,-5.258 -5.586,-9.281 v 0 c 0,-5.8 4.703,-10.503 10.503,-10.503 v 0 c 5.238,0 9.581,3.836 10.373,8.852 v 0 h 39.74 c 0.792,-5.016 5.134,-8.852 10.372,-8.852 v 0 c 5.801,0 10.503,4.703 10.503,10.503 v 0 c 0,4.023 -2.263,7.517 -5.586,9.281 v 0 l 12.354,38.022 c 0.55,-0.088 1.113,-0.136 1.687,-0.136 v 0 c 5.801,0 10.503,4.702 10.503,10.503 v 0 c 0,5.8 -4.702,10.503 -10.503,10.503 v 0 c -2.847,0 -5.428,-1.135 -7.32,-2.975 v 0 l -32.519,23.627 c 0.729,1.429 1.142,3.046 1.142,4.76 v 0 c 0,5.8 -4.703,10.503 -10.503,10.503 v 0 c -5.801,0 -10.503,-4.703 -10.503,-10.503 m 17.923,-7.432 32.482,-23.6 c -0.768,-1.459 -1.204,-3.119 -1.204,-4.883 v 0 c 0,-4.061 2.307,-7.582 5.68,-9.329 v 0 l -12.345,-37.993 c -0.582,0.099 -1.18,0.154 -1.791,0.154 v 0 c -5.238,0 -9.579,-3.835 -10.372,-8.85 v 0 h -39.74 c -0.793,5.015 -5.135,8.85 -10.373,8.85 v 0 c -0.611,0 -1.209,-0.055 -1.791,-0.154 v 0 l -12.344,37.993 c 3.373,1.747 5.68,5.268 5.68,9.329 v 0 c 0,1.764 -0.437,3.424 -1.205,4.883 v 0 l 32.482,23.6 c 1.9,-1.897 4.524,-3.07 7.421,-3.07 v 0 c 2.897,0 5.52,1.173 7.42,3.07"
         id="path96" />
    </clipPath>
    <linearGradient
       x1="0"
       y1="0"
       x2="1"
       y2="0"
       gradientUnits="userSpaceOnUse"
       gradientTransform="matrix(119.40697,0,0,-119.40697,76.379242,170.28755)"
       spreadMethod="pad"
       id="linearGradient114">
      <stop
         style="stop-opacity:1;stop-color:#8a4198"
         offset="0"
         id="stop104" />
      <stop
         style="stop-opacity:1;stop-color:#8a4198"
         offset="0.00558659"
         id="stop106" />
      <stop
         style="stop-opacity:1;stop-color:#5d6bb1"
         offset="0.513967"
         id="stop108" />
      <stop
         style="stop-opacity:1;stop-color:#67cdf5"
         offset="0.994413"
         id="stop110" />
      <stop
         style="stop-opacity:1;stop-color:#67cdf5"
         offset="1"
         id="stop112" />
    </linearGradient>
    <clipPath
       clipPathUnits="userSpaceOnUse"
       id="clipPath128">
      <path
         d="m 130.448,195.394 c 0,-0.92 0.221,-1.787 0.612,-2.554 v 0 l -17.449,-12.677 c -1.014,0.987 -2.399,1.596 -3.926,1.596 v 0 c -3.112,0 -5.636,-2.523 -5.636,-5.635 v 0 c 0,-3.113 2.524,-5.635 5.636,-5.635 v 0 c 0.308,0 0.61,0.025 0.904,0.073 v 0 l 6.629,-20.402 c -1.782,-0.945 -2.997,-2.82 -2.997,-4.979 v 0 c 0,-3.112 2.522,-5.635 5.635,-5.635 v 0 c 2.81,0 5.141,2.058 5.565,4.749 v 0 h 21.323 c 0.425,-2.691 2.755,-4.749 5.566,-4.749 v 0 c 3.112,0 5.635,2.523 5.635,5.635 v 0 c 0,2.159 -1.215,4.034 -2.997,4.979 v 0 l 6.628,20.402 c 0.294,-0.048 0.597,-0.073 0.905,-0.073 v 0 c 3.113,0 5.635,2.522 5.635,5.635 v 0 c 0,3.112 -2.522,5.635 -5.635,5.635 v 0 c -1.528,0 -2.913,-0.609 -3.927,-1.596 v 0 l -17.448,12.677 c 0.39,0.767 0.612,1.634 0.612,2.554 v 0 c 0,3.112 -2.523,5.635 -5.635,5.635 v 0 c -3.113,0 -5.635,-2.523 -5.635,-5.635 m 9.616,-3.988 17.428,-12.662 c -0.411,-0.783 -0.646,-1.674 -0.646,-2.62 v 0 c 0,-2.179 1.237,-4.068 3.048,-5.006 v 0 l -6.624,-20.385 c -0.312,0.054 -0.633,0.084 -0.96,0.084 v 0 c -2.811,0 -5.141,-2.059 -5.566,-4.75 v 0 h -21.323 c -0.424,2.691 -2.755,4.75 -5.565,4.75 v 0 c -0.328,0 -0.648,-0.03 -0.961,-0.084 v 0 l -6.624,20.385 c 1.811,0.938 3.049,2.827 3.049,5.006 v 0 c 0,0.946 -0.234,1.837 -0.646,2.62 v 0 l 17.427,12.662 c 1.02,-1.018 2.427,-1.647 3.982,-1.647 v 0 c 1.554,0 2.962,0.629 3.981,1.647"
         id="path126" />
    </clipPath>
    <linearGradient
       x1="0"
       y1="0"
       x2="1"
       y2="0"
       gradientUnits="userSpaceOnUse"
       gradientTransform="matrix(64.067047,0,0,-64.067047,104.0492,170.28755)"
       spreadMethod="pad"
       id="linearGradient144">
      <stop
         style="stop-opacity:1;stop-color:#7c7e80"
         offset="0"
         id="stop134" />
      <stop
         style="stop-opacity:1;stop-color:#7c7e80"
         offset="0.00558659"
         id="stop136" />
      <stop
         style="stop-opacity:1;stop-color:#87888b"
         offset="0.513967"
         id="stop138" />
      <stop
         style="stop-opacity:1;stop-color:#bcbec0"
         offset="0.994413"
         id="stop140" />
      <stop
         style="stop-opacity:1;stop-color:#bcbec0"
         offset="1"
         id="stop142" />
    </linearGradient>
    <clipPath
       clipPathUnits="userSpaceOnUse"
       id="clipPath154">
      <path
         d="m 128.276,205.07 c 0,-1.275 0.307,-2.476 0.849,-3.539 v 0 l -24.172,-17.562 c -1.407,1.367 -3.325,2.21 -5.442,2.21 v 0 c -4.312,0 -7.806,-3.494 -7.806,-7.806 v 0 c 0,-4.312 3.494,-7.807 7.806,-7.807 v 0 c 0.427,0 0.845,0.035 1.254,0.102 v 0 l 9.184,-28.264 c -2.47,-1.31 -4.153,-3.908 -4.153,-6.898 v 0 c 0,-4.311 3.496,-7.807 7.807,-7.807 v 0 c 3.894,0 7.121,2.851 7.71,6.58 v 0 h 29.54 c 0.588,-3.729 3.816,-6.58 7.71,-6.58 v 0 c 4.311,0 7.806,3.496 7.806,7.807 v 0 c 0,2.99 -1.683,5.588 -4.152,6.898 v 0 l 9.183,28.264 c 0.409,-0.067 0.828,-0.102 1.254,-0.102 v 0 c 4.312,0 7.807,3.495 7.807,7.807 v 0 c 0,4.312 -3.495,7.806 -7.807,7.806 v 0 c -2.117,0 -4.035,-0.843 -5.441,-2.21 v 0 l -24.172,17.562 c 0.541,1.063 0.848,2.264 0.848,3.539 v 0 c 0,4.31 -3.494,7.806 -7.806,7.806 v 0 c -4.312,0 -7.807,-3.496 -7.807,-7.806 m 13.323,-5.526 24.144,-17.541 c -0.571,-1.085 -0.895,-2.32 -0.895,-3.63 v 0 c 0,-3.019 1.714,-5.636 4.222,-6.935 v 0 l -9.176,-28.241 c -0.433,0.075 -0.878,0.115 -1.331,0.115 v 0 c -3.894,0 -7.122,-2.85 -7.71,-6.579 v 0 h -29.54 c -0.589,3.729 -3.816,6.579 -7.71,6.579 v 0 c -0.454,0 -0.899,-0.04 -1.332,-0.115 v 0 l -9.175,28.241 c 2.507,1.299 4.222,3.916 4.222,6.935 v 0 c 0,1.31 -0.324,2.545 -0.896,3.63 v 0 l 24.145,17.541 c 1.413,-1.41 3.362,-2.282 5.516,-2.282 v 0 c 2.153,0 4.103,0.872 5.516,2.282"
         id="path152" />
    </clipPath>
    <linearGradient
       x1="0"
       y1="0"
       x2="1"
       y2="0"
       gradientUnits="userSpaceOnUse"
       gradientTransform="matrix(88.756638,0,0,-88.756638,91.704407,170.28755)"
       spreadMethod="pad"
       id="linearGradient170">
      <stop
         style="stop-opacity:1;stop-color:#7c7e80"
         offset="0"
         id="stop160" />
      <stop
         style="stop-opacity:1;stop-color:#7c7e80"
         offset="0.00558659"
         id="stop162" />
      <stop
         style="stop-opacity:1;stop-color:#87888b"
         offset="0.513967"
         id="stop164" />
      <stop
         style="stop-opacity:1;stop-color:#bcbec0"
         offset="0.994413"
         id="stop166" />
      <stop
         style="stop-opacity:1;stop-color:#bcbec0"
         offset="1"
         id="stop168" />
    </linearGradient>
    <clipPath
       clipPathUnits="userSpaceOnUse"
       id="clipPath180">
      <path
         d="M 0,288 H 273.299 V 0 H 0 Z"
         id="path178" />
    </clipPath>
    <clipPath
       clipPathUnits="userSpaceOnUse"
       id="clipPath208">
      <path
         d="m 125.58,217.08 c 0,-1.714 0.414,-3.331 1.142,-4.76 v 0 l -32.52,-23.627 c -1.892,1.84 -4.473,2.975 -7.32,2.975 v 0 c -5.8,0 -10.503,-4.703 -10.503,-10.503 v 0 c 0,-5.801 4.703,-10.503 10.503,-10.503 v 0 c 0.575,0 1.137,0.048 1.687,0.136 v 0 l 12.354,-38.022 c -3.322,-1.764 -5.586,-5.258 -5.586,-9.281 v 0 c 0,-5.8 4.703,-10.503 10.503,-10.503 v 0 c 5.238,0 9.581,3.836 10.373,8.852 v 0 h 39.74 c 0.792,-5.016 5.134,-8.852 10.372,-8.852 v 0 c 5.801,0 10.503,4.703 10.503,10.503 v 0 c 0,4.023 -2.263,7.517 -5.586,9.281 v 0 l 12.354,38.022 c 0.55,-0.088 1.113,-0.136 1.687,-0.136 v 0 c 5.801,0 10.503,4.702 10.503,10.503 v 0 c 0,5.8 -4.702,10.503 -10.503,10.503 v 0 c -2.847,0 -5.428,-1.135 -7.32,-2.975 v 0 l -32.519,23.627 c 0.729,1.429 1.142,3.046 1.142,4.76 v 0 c 0,5.8 -4.703,10.503 -10.503,10.503 v 0 c -5.801,0 -10.503,-4.703 -10.503,-10.503 m 17.923,-7.432 32.482,-23.6 c -0.768,-1.459 -1.204,-3.119 -1.204,-4.883 v 0 c 0,-4.061 2.307,-7.582 5.68,-9.329 v 0 l -12.345,-37.993 c -0.582,0.099 -1.18,0.154 -1.791,0.154 v 0 c -5.238,0 -9.579,-3.835 -10.372,-8.85 v 0 h -39.74 c -0.793,5.015 -5.135,8.85 -10.373,8.85 v 0 c -0.611,0 -1.209,-0.055 -1.791,-0.154 v 0 l -12.344,37.993 c 3.373,1.747 5.68,5.268 5.68,9.329 v 0 c 0,1.764 -0.437,3.424 -1.205,4.883 v 0 l 32.482,23.6 c 1.9,-1.897 4.524,-3.07 7.421,-3.07 v 0 c 2.897,0 5.52,1.173 7.42,3.07"
         id="path206" />
    </clipPath>
    <linearGradient
       x1="0"
       y1="0"
       x2="1"
       y2="0"
       gradientUnits="userSpaceOnUse"
       gradientTransform="matrix(119.40697,0,0,-119.40697,76.379242,170.28755)"
       spreadMethod="pad"
       id="linearGradient224">
      <stop
         style="stop-opacity:1;stop-color:#7c7e80"
         offset="0"
         id="stop214" />
      <stop
         style="stop-opacity:1;stop-color:#7c7e80"
         offset="0.00558659"
         id="stop216" />
      <stop
         style="stop-opacity:1;stop-color:#87888b"
         offset="0.513967"
         id="stop218" />
      <stop
         style="stop-opacity:1;stop-color:#bcbec0"
         offset="0.994413"
         id="stop220" />
      <stop
         style="stop-opacity:1;stop-color:#bcbec0"
         offset="1"
         id="stop222" />
    </linearGradient>
    <clipPath
       clipPathUnits="userSpaceOnUse"
       id="clipPath238">
      <path
         d="M 0,288 H 273.299 V 0 H 0 Z"
         id="path236" />
    </clipPath>
    <clipPath
       clipPathUnits="userSpaceOnUse"
       id="clipPath284">
      <path
         d="m 130.448,195.394 c 0,-0.92 0.221,-1.787 0.612,-2.554 v 0 l -17.449,-12.677 c -1.014,0.987 -2.399,1.596 -3.926,1.596 v 0 c -3.112,0 -5.636,-2.523 -5.636,-5.635 v 0 c 0,-3.113 2.524,-5.635 5.636,-5.635 v 0 c 0.308,0 0.61,0.025 0.904,0.073 v 0 l 6.629,-20.402 c -1.782,-0.945 -2.997,-2.82 -2.997,-4.979 v 0 c 0,-3.112 2.522,-5.635 5.635,-5.635 v 0 c 2.81,0 5.141,2.058 5.565,4.749 v 0 h 21.323 c 0.425,-2.691 2.755,-4.749 5.566,-4.749 v 0 c 3.112,0 5.635,2.523 5.635,5.635 v 0 c 0,2.159 -1.215,4.034 -2.997,4.979 v 0 l 6.628,20.402 c 0.294,-0.048 0.597,-0.073 0.905,-0.073 v 0 c 3.113,0 5.635,2.522 5.635,5.635 v 0 c 0,3.112 -2.522,5.635 -5.635,5.635 v 0 c -1.528,0 -2.913,-0.609 -3.927,-1.596 v 0 l -17.448,12.677 c 0.39,0.767 0.612,1.634 0.612,2.554 v 0 c 0,3.112 -2.523,5.635 -5.635,5.635 v 0 c -3.113,0 -5.635,-2.523 -5.635,-5.635 m 9.616,-3.988 17.428,-12.662 c -0.411,-0.783 -0.646,-1.674 -0.646,-2.62 v 0 c 0,-2.179 1.237,-4.068 3.048,-5.006 v 0 l -6.624,-20.385 c -0.312,0.054 -0.633,0.084 -0.96,0.084 v 0 c -2.811,0 -5.141,-2.059 -5.566,-4.75 v 0 h -21.323 c -0.424,2.691 -2.755,4.75 -5.565,4.75 v 0 c -0.328,0 -0.648,-0.03 -0.961,-0.084 v 0 l -6.624,20.385 c 1.811,0.938 3.049,2.827 3.049,5.006 v 0 c 0,0.946 -0.234,1.837 -0.646,2.62 v 0 l 17.427,12.662 c 1.02,-1.018 2.427,-1.647 3.982,-1.647 v 0 c 1.554,0 2.962,0.629 3.981,1.647"
         id="path282" />
    </clipPath>
    <linearGradient
       x1="0"
       y1="0"
       x2="1"
       y2="0"
       gradientUnits="userSpaceOnUse"
       gradientTransform="matrix(64.067047,0,0,-64.067047,104.0492,170.28755)"
       spreadMethod="pad"
       id="linearGradient300">
      <stop
         style="stop-opacity:1;stop-color:#8a4198"
         offset="0"
         id="stop290" />
      <stop
         style="stop-opacity:1;stop-color:#8a4198"
         offset="0.00558659"
         id="stop292" />
      <stop
         style="stop-opacity:1;stop-color:#5d6bb1"
         offset="0.513967"
         id="stop294" />
      <stop
         style="stop-opacity:1;stop-color:#67cdf5"
         offset="0.994413"
         id="stop296" />
      <stop
         style="stop-opacity:1;stop-color:#67cdf5"
         offset="1"
         id="stop298" />
    </linearGradient>
    <clipPath
       clipPathUnits="userSpaceOnUse"
       id="clipPath310">
      <path
         d="m 128.276,205.07 c 0,-1.275 0.307,-2.476 0.849,-3.539 v 0 l -24.172,-17.562 c -1.407,1.367 -3.325,2.21 -5.442,2.21 v 0 c -4.312,0 -7.806,-3.494 -7.806,-7.806 v 0 c 0,-4.312 3.494,-7.807 7.806,-7.807 v 0 c 0.427,0 0.845,0.035 1.254,0.102 v 0 l 9.184,-28.264 c -2.47,-1.31 -4.153,-3.908 -4.153,-6.898 v 0 c 0,-4.311 3.496,-7.807 7.807,-7.807 v 0 c 3.894,0 7.121,2.851 7.71,6.58 v 0 h 29.54 c 0.588,-3.729 3.816,-6.58 7.71,-6.58 v 0 c 4.311,0 7.806,3.496 7.806,7.807 v 0 c 0,2.99 -1.683,5.588 -4.152,6.898 v 0 l 9.183,28.264 c 0.409,-0.067 0.828,-0.102 1.254,-0.102 v 0 c 4.312,0 7.807,3.495 7.807,7.807 v 0 c 0,4.312 -3.495,7.806 -7.807,7.806 v 0 c -2.117,0 -4.035,-0.843 -5.441,-2.21 v 0 l -24.172,17.562 c 0.541,1.063 0.848,2.264 0.848,3.539 v 0 c 0,4.31 -3.494,7.806 -7.806,7.806 v 0 c -4.312,0 -7.807,-3.496 -7.807,-7.806 m 13.323,-5.526 24.144,-17.541 c -0.571,-1.085 -0.895,-2.32 -0.895,-3.63 v 0 c 0,-3.019 1.714,-5.636 4.222,-6.935 v 0 l -9.176,-28.241 c -0.433,0.075 -0.878,0.115 -1.331,0.115 v 0 c -3.894,0 -7.122,-2.85 -7.71,-6.579 v 0 h -29.54 c -0.589,3.729 -3.816,6.579 -7.71,6.579 v 0 c -0.454,0 -0.899,-0.04 -1.332,-0.115 v 0 l -9.175,28.241 c 2.507,1.299 4.222,3.916 4.222,6.935 v 0 c 0,1.31 -0.324,2.545 -0.896,3.63 v 0 l 24.145,17.541 c 1.413,-1.41 3.362,-2.282 5.516,-2.282 v 0 c 2.153,0 4.103,0.872 5.516,2.282"
         id="path308" />
    </clipPath>
    <linearGradient
       x1="0"
       y1="0"
       x2="1"
       y2="0"
       gradientUnits="userSpaceOnUse"
       gradientTransform="matrix(88.756638,0,0,-88.756638,91.704407,170.28755)"
       spreadMethod="pad"
       id="linearGradient326">
      <stop
         style="stop-opacity:1;stop-color:#8a4198"
         offset="0"
         id="stop316" />
      <stop
         style="stop-opacity:1;stop-color:#8a4198"
         offset="0.00558659"
         id="stop318" />
      <stop
         style="stop-opacity:1;stop-color:#5d6bb1"
         offset="0.513967"
         id="stop320" />
      <stop
         style="stop-opacity:1;stop-color:#67cdf5"
         offset="0.994413"
         id="stop322" />
      <stop
         style="stop-opacity:1;stop-color:#67cdf5"
         offset="1"
         id="stop324" />
    </linearGradient>
    <clipPath
       clipPathUnits="userSpaceOnUse"
       id="clipPath336">
      <path
         d="M 0,288 H 273.299 V 0 H 0 Z"
         id="path334" />
    </clipPath>
    <clipPath
       clipPathUnits="userSpaceOnUse"
       id="clipPath364">
      <path
         d="m 125.58,217.08 c 0,-1.714 0.414,-3.331 1.142,-4.76 v 0 l -32.52,-23.627 c -1.892,1.84 -4.473,2.975 -7.32,2.975 v 0 c -5.8,0 -10.503,-4.703 -10.503,-10.503 v 0 c 0,-5.801 4.703,-10.503 10.503,-10.503 v 0 c 0.575,0 1.137,0.048 1.687,0.136 v 0 l 12.354,-38.022 c -3.322,-1.764 -5.586,-5.258 -5.586,-9.281 v 0 c 0,-5.8 4.703,-10.503 10.503,-10.503 v 0 c 5.238,0 9.581,3.836 10.373,8.852 v 0 h 39.74 c 0.792,-5.016 5.134,-8.852 10.372,-8.852 v 0 c 5.801,0 10.503,4.703 10.503,10.503 v 0 c 0,4.023 -2.263,7.517 -5.586,9.281 v 0 l 12.354,38.022 c 0.55,-0.088 1.113,-0.136 1.687,-0.136 v 0 c 5.801,0 10.503,4.702 10.503,10.503 v 0 c 0,5.8 -4.702,10.503 -10.503,10.503 v 0 c -2.847,0 -5.428,-1.135 -7.32,-2.975 v 0 l -32.519,23.627 c 0.729,1.429 1.142,3.046 1.142,4.76 v 0 c 0,5.8 -4.703,10.503 -10.503,10.503 v 0 c -5.801,0 -10.503,-4.703 -10.503,-10.503 m 17.923,-7.432 32.482,-23.6 c -0.768,-1.459 -1.204,-3.119 -1.204,-4.883 v 0 c 0,-4.061 2.307,-7.582 5.68,-9.329 v 0 l -12.345,-37.993 c -0.582,0.099 -1.18,0.154 -1.791,0.154 v 0 c -5.238,0 -9.579,-3.835 -10.372,-8.85 v 0 h -39.74 c -0.793,5.015 -5.135,8.85 -10.373,8.85 v 0 c -0.611,0 -1.209,-0.055 -1.791,-0.154 v 0 l -12.344,37.993 c 3.373,1.747 5.68,5.268 5.68,9.329 v 0 c 0,1.764 -0.437,3.424 -1.205,4.883 v 0 l 32.482,23.6 c 1.9,-1.897 4.524,-3.07 7.421,-3.07 v 0 c 2.897,0 5.52,1.173 7.42,3.07"
         id="path362" />
    </clipPath>
    <linearGradient
       x1="0"
       y1="0"
       x2="1"
       y2="0"
       gradientUnits="userSpaceOnUse"
       gradientTransform="matrix(119.40697,0,0,-119.40697,76.379242,170.28755)"
       spreadMethod="pad"
       id="linearGradient380">
      <stop
         style="stop-opacity:1;stop-color:#8a4198"
         offset="0"
         id="stop370" />
      <stop
         style="stop-opacity:1;stop-color:#8a4198"
         offset="0.00558659"
         id="stop372" />
      <stop
         style="stop-opacity:1;stop-color:#5d6bb1"
         offset="0.513967"
         id="stop374" />
      <stop
         style="stop-opacity:1;stop-color:#67cdf5"
         offset="0.994413"
         id="stop376" />
      <stop
         style="stop-opacity:1;stop-color:#67cdf5"
         offset="1"
         id="stop378" />
    </linearGradient>
    <clipPath
       clipPathUnits="userSpaceOnUse"
       id="clipPath396">
      <path
         d="M 0,288 H 273.299 V 0 H 0 Z"
         id="path394" />
    </clipPath>
  </defs>
  <g
     id="g10"
     transform="matrix(1.3333333,0,0,-1.3333333,0,384)">
    <g
       id="g12">
      <g
         id="g14"
         clip-path="url(#clipPath18)">
        <g
           id="g20">
          <g
             id="g22">
            <path
               d="m 130.448,195.394 c 0,-0.92 0.221,-1.787 0.612,-2.554 v 0 l -17.449,-12.677 c -1.014,0.987 -2.399,1.596 -3.926,1.596 v 0 c -3.112,0 -5.636,-2.523 -5.636,-5.635 v 0 c 0,-3.113 2.524,-5.635 5.636,-5.635 v 0 c 0.308,0 0.61,0.025 0.904,0.073 v 0 l 6.629,-20.402 c -1.782,-0.945 -2.997,-2.82 -2.997,-4.979 v 0 c 0,-3.112 2.522,-5.635 5.635,-5.635 v 0 c 2.81,0 5.141,2.058 5.565,4.749 v 0 h 21.323 c 0.425,-2.691 2.755,-4.749 5.566,-4.749 v 0 c 3.112,0 5.635,2.523 5.635,5.635 v 0 c 0,2.159 -1.215,4.034 -2.997,4.979 v 0 l 6.628,20.402 c 0.294,-0.048 0.597,-0.073 0.905,-0.073 v 0 c 3.113,0 5.635,2.522 5.635,5.635 v 0 c 0,3.112 -2.522,5.635 -5.635,5.635 v 0 c -1.528,0 -2.913,-0.609 -3.927,-1.596 v 0 l -17.448,12.677 c 0.39,0.767 0.612,1.634 0.612,2.554 v 0 c 0,3.112 -2.523,5.635 -5.635,5.635 v 0 c -3.113,0 -5.635,-2.523 -5.635,-5.635 m 9.616,-3.988 17.428,-12.662 c -0.411,-0.783 -0.646,-1.674 -0.646,-2.62 v 0 c 0,-2.179 1.237,-4.068 3.048,-5.006 v 0 l -6.624,-20.385 c -0.312,0.054 -0.633,0.084 -0.96,0.084 v 0 c -2.811,0 -5.141,-2.059 -5.566,-4.75 v 0 h -21.323 c -0.424,2.691 -2.755,4.75 -5.565,4.75 v 0 c -0.328,0 -0.648,-0.03 -0.961,-0.084 v 0 l -6.624,20.385 c 1.811,0.938 3.049,2.827 3.049,5.006 v 0 c 0,0.946 -0.234,1.837 -0.646,2.62 v 0 l 17.427,12.662 c 1.02,-1.018 2.427,-1.647 3.982,-1.647 v 0 c 1.554,0 2.962,0.629 3.981,1.647"
               style="fill:url(#linearGradient34);stroke:none"
               id="path36" />
          </g>
        </g>
      </g>
    </g>
    <g
       id="g38">
      <g
         id="g40"
         clip-path="url(#clipPath44)">
        <g
           id="g46">
          <g
             id="g48">
            <path
               d="m 128.276,205.07 c 0,-1.275 0.307,-2.476 0.849,-3.539 v 0 l -24.172,-17.562 c -1.407,1.367 -3.325,2.21 -5.442,2.21 v 0 c -4.312,0 -7.806,-3.494 -7.806,-7.806 v 0 c 0,-4.312 3.494,-7.807 7.806,-7.807 v 0 c 0.427,0 0.845,0.035 1.254,0.102 v 0 l 9.184,-28.264 c -2.47,-1.31 -4.153,-3.908 -4.153,-6.898 v 0 c 0,-4.311 3.496,-7.807 7.807,-7.807 v 0 c 3.894,0 7.121,2.851 7.71,6.58 v 0 h 29.54 c 0.588,-3.729 3.816,-6.58 7.71,-6.58 v 0 c 4.311,0 7.806,3.496 7.806,7.807 v 0 c 0,2.99 -1.683,5.588 -4.152,6.898 v 0 l 9.183,28.264 c 0.409,-0.067 0.828,-0.102 1.254,-0.102 v 0 c 4.312,0 7.807,3.495 7.807,7.807 v 0 c 0,4.312 -3.495,7.806 -7.807,7.806 v 0 c -2.117,0 -4.035,-0.843 -5.441,-2.21 v 0 l -24.172,17.562 c 0.541,1.063 0.848,2.264 0.848,3.539 v 0 c 0,4.31 -3.494,7.806 -7.806,7.806 v 0 c -4.312,0 -7.807,-3.496 -7.807,-7.806 m 13.323,-5.526 24.144,-17.541 c -0.571,-1.085 -0.895,-2.32 -0.895,-3.63 v 0 c 0,-3.019 1.714,-5.636 4.222,-6.935 v 0 l -9.176,-28.241 c -0.433,0.075 -0.878,0.115 -1.331,0.115 v 0 c -3.894,0 -7.122,-2.85 -7.71,-6.579 v 0 h -29.54 c -0.589,3.729 -3.816,6.579 -7.71,6.579 v 0 c -0.454,0 -0.899,-0.04 -1.332,-0.115 v 0 l -9.175,28.241 c 2.507,1.299 4.222,3.916 4.222,6.935 v 0 c 0,1.31 -0.324,2.545 -0.896,3.63 v 0 l 24.145,17.541 c 1.413,-1.41 3.362,-2.282 5.516,-2.282 v 0 c 2.153,0 4.103,0.872 5.516,2.282"
               style="fill:url(#linearGradient60);stroke:none"
               id="path62" />
          </g>
        </g>
      </g>
    </g>
    <g
       id="g64">
      <g
         id="g66"
         clip-path="url(#clipPath70)">
        <g
           id="g72"
           transform="translate(75.5412,83.3975)">
          <path
             d="m 0,0 -2.274,-5.626 h 4.628 z m 6.664,-15.881 c -0.239,0.758 -0.679,1.756 -0.998,2.514 l -0.798,1.836 h -9.536 l -1.237,-2.634 c -0.32,-0.719 -0.519,-1.157 -0.599,-1.716 h -7.621 c 1.037,1.756 2.115,3.711 3.232,6.066 L -0.599,11.931 H 1.517 L 12.25,-9.815 c 1.077,-2.275 2.395,-4.43 3.392,-6.066 z"
             style="fill:#231f20;fill-opacity:1;fill-rule:nonzero;stroke:none"
             id="path74" />
        </g>
        <g
           id="g76"
           transform="translate(91.9767,67.5166)">
          <path
             d="m 0,0 c 1.356,1.596 2.992,3.99 4.589,6.345 l 4.708,7.461 -4.668,7.302 c -1.557,2.434 -3.152,4.829 -4.27,6.225 h 9.337 c 0.639,-1.277 1.077,-2.075 1.756,-3.272 l 2.114,-3.751 2.275,3.911 c 0.638,1.157 1.197,2.194 1.636,3.112 h 8.619 c -1.238,-1.517 -2.953,-3.99 -4.19,-5.866 L 17.357,14.404 22.226,6.982 C 23.941,4.27 25.937,1.396 27.133,0 h -9.536 c -0.2,0.519 -0.718,1.517 -1.676,3.112 L 13.128,7.781 10.175,2.674 C 9.178,0.798 8.858,0.399 8.818,0 Z"
             style="fill:#231f20;fill-opacity:1;fill-rule:nonzero;stroke:none"
             id="path78" />
        </g>
        <g
           id="g80"
           transform="translate(120.6623,67.5166)">
          <path
             d="m 0,0 c 0.399,1.437 0.878,4.35 1.437,7.223 l 3.95,20.589 h 1.955 l 9.616,-16.879 9.896,16.879 h 2.035 L 32.121,7.183 C 32.52,4.509 33.118,1.756 33.677,0 h -8.658 c 0,1.955 -1.038,6.624 -1.596,10.733 L 16.839,-0.438 H 15.442 L 8.898,10.813 C 8.061,6.624 7.143,1.915 7.103,0 Z"
             style="fill:#231f20;fill-opacity:1;fill-rule:nonzero;stroke:none"
             id="path82" />
        </g>
        <g
           id="g84"
           transform="translate(171.6535,73.582)">
          <path
             d="m 0,0 c 4.029,0 7.062,3.392 7.062,7.621 0,4.23 -3.033,7.621 -7.062,7.621 -4.03,0 -7.023,-3.391 -7.023,-7.621 C -7.023,3.392 -4.03,0 0,0 m 0,21.786 c 8.578,0 14.923,-6.345 14.923,-14.165 C 14.923,-0.24 8.578,-6.584 0,-6.584 c -8.539,0 -14.884,6.344 -14.884,14.205 0,7.82 6.345,14.165 14.884,14.165"
             style="fill:#231f20;fill-opacity:1;fill-rule:nonzero;stroke:none"
             id="path86" />
        </g>
        <g
           id="g88"
           transform="translate(199.1408,74.1006)">
          <path
             d="m 0,0 h 3.392 c 2.754,0 5.866,0.04 7.102,0.119 V -6.743 C 9.258,-6.664 6.146,-6.584 3.392,-6.584 H -7.98 c 0.08,2.194 0.16,5.347 0.16,7.143 v 13.047 c 0,2.753 -0.08,5.946 -0.16,7.143 H 0.16 C 0.08,19.552 0,16.359 0,13.606 Z"
             style="fill:#231f20;fill-opacity:1;fill-rule:nonzero;stroke:none"
             id="path90" />
        </g>
      </g>
    </g>
    <g
       id="g92">
      <g
         id="g94"
         clip-path="url(#clipPath98)">
        <g
           id="g100">
          <g
             id="g102">
            <path
               d="m 125.58,217.08 c 0,-1.714 0.414,-3.331 1.142,-4.76 v 0 l -32.52,-23.627 c -1.892,1.84 -4.473,2.975 -7.32,2.975 v 0 c -5.8,0 -10.503,-4.703 -10.503,-10.503 v 0 c 0,-5.801 4.703,-10.503 10.503,-10.503 v 0 c 0.575,0 1.137,0.048 1.687,0.136 v 0 l 12.354,-38.022 c -3.322,-1.764 -5.586,-5.258 -5.586,-9.281 v 0 c 0,-5.8 4.703,-10.503 10.503,-10.503 v 0 c 5.238,0 9.581,3.836 10.373,8.852 v 0 h 39.74 c 0.792,-5.016 5.134,-8.852 10.372,-8.852 v 0 c 5.801,0 10.503,4.703 10.503,10.503 v 0 c 0,4.023 -2.263,7.517 -5.586,9.281 v 0 l 12.354,38.022 c 0.55,-0.088 1.113,-0.136 1.687,-0.136 v 0 c 5.801,0 10.503,4.702 10.503,10.503 v 0 c 0,5.8 -4.702,10.503 -10.503,10.503 v 0 c -2.847,0 -5.428,-1.135 -7.32,-2.975 v 0 l -32.519,23.627 c 0.729,1.429 1.142,3.046 1.142,4.76 v 0 c 0,5.8 -4.703,10.503 -10.503,10.503 v 0 c -5.801,0 -10.503,-4.703 -10.503,-10.503 m 17.923,-7.432 32.482,-23.6 c -0.768,-1.459 -1.204,-3.119 -1.204,-4.883 v 0 c 0,-4.061 2.307,-7.582 5.68,-9.329 v 0 l -12.345,-37.993 c -0.582,0.099 -1.18,0.154 -1.791,0.154 v 0 c -5.238,0 -9.579,-3.835 -10.372,-8.85 v 0 h -39.74 c -0.793,5.015 -5.135,8.85 -10.373,8.85 v 0 c -0.611,0 -1.209,-0.055 -1.791,-0.154 v 0 l -12.344,37.993 c 3.373,1.747 5.68,5.268 5.68,9.329 v 0 c 0,1.764 -0.437,3.424 -1.205,4.883 v 0 l 32.482,23.6 c 1.9,-1.897 4.524,-3.07 7.421,-3.07 v 0 c 2.897,0 5.52,1.173 7.42,3.07"
               style="fill:url(#linearGradient114);stroke:none"
               id="path116" />
          </g>
        </g>
      </g>
    </g>
  </g>
  <g
     id="g120"
     transform="matrix(1.3333333,0,0,-1.3333333,384.39867,384)">
    <g
       id="g122">
      <g
         id="g124"
         clip-path="url(#clipPath128)">
        <g
           id="g130">
          <g
             id="g132">
            <path
               d="m 130.448,195.394 c 0,-0.92 0.221,-1.787 0.612,-2.554 v 0 l -17.449,-12.677 c -1.014,0.987 -2.399,1.596 -3.926,1.596 v 0 c -3.112,0 -5.636,-2.523 -5.636,-5.635 v 0 c 0,-3.113 2.524,-5.635 5.636,-5.635 v 0 c 0.308,0 0.61,0.025 0.904,0.073 v 0 l 6.629,-20.402 c -1.782,-0.945 -2.997,-2.82 -2.997,-4.979 v 0 c 0,-3.112 2.522,-5.635 5.635,-5.635 v 0 c 2.81,0 5.141,2.058 5.565,4.749 v 0 h 21.323 c 0.425,-2.691 2.755,-4.749 5.566,-4.749 v 0 c 3.112,0 5.635,2.523 5.635,5.635 v 0 c 0,2.159 -1.215,4.034 -2.997,4.979 v 0 l 6.628,20.402 c 0.294,-0.048 0.597,-0.073 0.905,-0.073 v 0 c 3.113,0 5.635,2.522 5.635,5.635 v 0 c 0,3.112 -2.522,5.635 -5.635,5.635 v 0 c -1.528,0 -2.913,-0.609 -3.927,-1.596 v 0 l -17.448,12.677 c 0.39,0.767 0.612,1.634 0.612,2.554 v 0 c 0,3.112 -2.523,5.635 -5.635,5.635 v 0 c -3.113,0 -5.635,-2.523 -5.635,-5.635 m 9.616,-3.988 17.428,-12.662 c -0.411,-0.783 -0.646,-1.674 -0.646,-2.62 v 0 c 0,-2.179 1.237,-4.068 3.048,-5.006 v 0 l -6.624,-20.385 c -0.312,0.054 -0.633,0.084 -0.96,0.084 v 0 c -2.811,0 -5.141,-2.059 -5.566,-4.75 v 0 h -21.323 c -0.424,2.691 -2.755,4.75 -5.565,4.75 v 0 c -0.328,0 -0.648,-0.03 -0.961,-0.084 v 0 l -6.624,20.385 c 1.811,0.938 3.049,2.827 3.049,5.006 v 0 c 0,0.946 -0.234,1.837 -0.646,2.62 v 0 l 17.427,12.662 c 1.02,-1.018 2.427,-1.647 3.982,-1.647 v 0 c 1.554,0 2.962,0.629 3.981,1.647"
               style="fill:url(#linearGradient144);stroke:none"
               id="path146" />
          </g>
        </g>
      </g>
    </g>
    <g
       id="g148">
      <g
         id="g150"
         clip-path="url(#clipPath154)">
        <g
           id="g156">
          <g
             id="g158">
            <path
               d="m 128.276,205.07 c 0,-1.275 0.307,-2.476 0.849,-3.539 v 0 l -24.172,-17.562 c -1.407,1.367 -3.325,2.21 -5.442,2.21 v 0 c -4.312,0 -7.806,-3.494 -7.806,-7.806 v 0 c 0,-4.312 3.494,-7.807 7.806,-7.807 v 0 c 0.427,0 0.845,0.035 1.254,0.102 v 0 l 9.184,-28.264 c -2.47,-1.31 -4.153,-3.908 -4.153,-6.898 v 0 c 0,-4.311 3.496,-7.807 7.807,-7.807 v 0 c 3.894,0 7.121,2.851 7.71,6.58 v 0 h 29.54 c 0.588,-3.729 3.816,-6.58 7.71,-6.58 v 0 c 4.311,0 7.806,3.496 7.806,7.807 v 0 c 0,2.99 -1.683,5.588 -4.152,6.898 v 0 l 9.183,28.264 c 0.409,-0.067 0.828,-0.102 1.254,-0.102 v 0 c 4.312,0 7.807,3.495 7.807,7.807 v 0 c 0,4.312 -3.495,7.806 -7.807,7.806 v 0 c -2.117,0 -4.035,-0.843 -5.441,-2.21 v 0 l -24.172,17.562 c 0.541,1.063 0.848,2.264 0.848,3.539 v 0 c 0,4.31 -3.494,7.806 -7.806,7.806 v 0 c -4.312,0 -7.807,-3.496 -7.807,-7.806 m 13.323,-5.526 24.144,-17.541 c -0.571,-1.085 -0.895,-2.32 -0.895,-3.63 v 0 c 0,-3.019 1.714,-5.636 4.222,-6.935 v 0 l -9.176,-28.241 c -0.433,0.075 -0.878,0.115 -1.331,0.115 v 0 c -3.894,0 -7.122,-2.85 -7.71,-6.579 v 0 h -29.54 c -0.589,3.729 -3.816,6.579 -7.71,6.579 v 0 c -0.454,0 -0.899,-0.04 -1.332,-0.115 v 0 l -9.175,28.241 c 2.507,1.299 4.222,3.916 4.222,6.935 v 0 c 0,1.31 -0.324,2.545 -0.896,3.63 v 0 l 24.145,17.541 c 1.413,-1.41 3.362,-2.282 5.516,-2.282 v 0 c 2.153,0 4.103,0.872 5.516,2.282"
               style="fill:url(#linearGradient170);stroke:none"
               id="path172" />
          </g>
        </g>
      </g>
    </g>
    <g
       id="g174">
      <g
         id="g176"
         clip-path="url(#clipPath180)">
        <g
           id="g182"
           transform="translate(75.5412,83.3975)">
          <path
             d="m 0,0 -2.274,-5.626 h 4.628 z m 6.664,-15.881 c -0.239,0.758 -0.679,1.756 -0.998,2.514 l -0.798,1.836 h -9.536 l -1.237,-2.634 c -0.32,-0.719 -0.519,-1.157 -0.599,-1.716 h -7.621 c 1.037,1.756 2.115,3.711 3.232,6.066 L -0.599,11.931 H 1.517 L 12.25,-9.815 c 1.077,-2.275 2.395,-4.43 3.392,-6.066 z"
             style="fill:#231f20;fill-opacity:1;fill-rule:nonzero;stroke:none"
             id="path184" />
        </g>
        <g
           id="g186"
           transform="translate(91.9767,67.5166)">
          <path
             d="m 0,0 c 1.356,1.596 2.992,3.99 4.589,6.345 l 4.708,7.461 -4.668,7.302 c -1.557,2.434 -3.152,4.829 -4.27,6.225 h 9.337 c 0.639,-1.277 1.077,-2.075 1.756,-3.272 l 2.114,-3.751 2.275,3.911 c 0.638,1.157 1.197,2.194 1.636,3.112 h 8.619 c -1.238,-1.517 -2.953,-3.99 -4.19,-5.866 L 17.357,14.404 22.226,6.982 C 23.941,4.27 25.937,1.396 27.133,0 h -9.536 c -0.2,0.519 -0.718,1.517 -1.676,3.112 L 13.128,7.781 10.175,2.674 C 9.178,0.798 8.858,0.399 8.818,0 Z"
             style="fill:#231f20;fill-opacity:1;fill-rule:nonzero;stroke:none"
             id="path188" />
        </g>
        <g
           id="g190"
           transform="translate(120.6623,67.5166)">
          <path
             d="m 0,0 c 0.399,1.437 0.878,4.35 1.437,7.223 l 3.95,20.589 h 1.955 l 9.616,-16.879 9.896,16.879 h 2.035 L 32.121,7.183 C 32.52,4.509 33.118,1.756 33.677,0 h -8.658 c 0,1.955 -1.038,6.624 -1.596,10.733 L 16.839,-0.438 H 15.442 L 8.898,10.813 C 8.061,6.624 7.143,1.915 7.103,0 Z"
             style="fill:#231f20;fill-opacity:1;fill-rule:nonzero;stroke:none"
             id="path192" />
        </g>
        <g
           id="g194"
           transform="translate(171.6535,73.582)">
          <path
             d="m 0,0 c 4.029,0 7.062,3.392 7.062,7.621 0,4.23 -3.033,7.621 -7.062,7.621 -4.03,0 -7.023,-3.391 -7.023,-7.621 C -7.023,3.392 -4.03,0 0,0 m 0,21.786 c 8.578,0 14.923,-6.345 14.923,-14.165 C 14.923,-0.24 8.578,-6.584 0,-6.584 c -8.539,0 -14.884,6.344 -14.884,14.205 0,7.82 6.345,14.165 14.884,14.165"
             style="fill:#231f20;fill-opacity:1;fill-rule:nonzero;stroke:none"
             id="path196" />
        </g>
        <g
           id="g198"
           transform="translate(199.1408,74.1006)">
          <path
             d="m 0,0 h 3.392 c 2.754,0 5.866,0.04 7.102,0.119 V -6.743 C 9.258,-6.664 6.146,-6.584 3.392,-6.584 H -7.98 c 0.08,2.194 0.16,5.347 0.16,7.143 v 13.047 c 0,2.753 -0.08,5.946 -0.16,7.143 H 0.16 C 0.08,19.552 0,16.359 0,13.606 Z"
             style="fill:#231f20;fill-opacity:1;fill-rule:nonzero;stroke:none"
             id="path200" />
        </g>
      </g>
    </g>
    <g
       id="g202">
      <g
         id="g204"
         clip-path="url(#clipPath208)">
        <g
           id="g210">
          <g
             id="g212">
            <path
               d="m 125.58,217.08 c 0,-1.714 0.414,-3.331 1.142,-4.76 v 0 l -32.52,-23.627 c -1.892,1.84 -4.473,2.975 -7.32,2.975 v 0 c -5.8,0 -10.503,-4.703 -10.503,-10.503 v 0 c 0,-5.801 4.703,-10.503 10.503,-10.503 v 0 c 0.575,0 1.137,0.048 1.687,0.136 v 0 l 12.354,-38.022 c -3.322,-1.764 -5.586,-5.258 -5.586,-9.281 v 0 c 0,-5.8 4.703,-10.503 10.503,-10.503 v 0 c 5.238,0 9.581,3.836 10.373,8.852 v 0 h 39.74 c 0.792,-5.016 5.134,-8.852 10.372,-8.852 v 0 c 5.801,0 10.503,4.703 10.503,10.503 v 0 c 0,4.023 -2.263,7.517 -5.586,9.281 v 0 l 12.354,38.022 c 0.55,-0.088 1.113,-0.136 1.687,-0.136 v 0 c 5.801,0 10.503,4.702 10.503,10.503 v 0 c 0,5.8 -4.702,10.503 -10.503,10.503 v 0 c -2.847,0 -5.428,-1.135 -7.32,-2.975 v 0 l -32.519,23.627 c 0.729,1.429 1.142,3.046 1.142,4.76 v 0 c 0,5.8 -4.703,10.503 -10.503,10.503 v 0 c -5.801,0 -10.503,-4.703 -10.503,-10.503 m 17.923,-7.432 32.482,-23.6 c -0.768,-1.459 -1.204,-3.119 -1.204,-4.883 v 0 c 0,-4.061 2.307,-7.582 5.68,-9.329 v 0 l -12.345,-37.993 c -0.582,0.099 -1.18,0.154 -1.791,0.154 v 0 c -5.238,0 -9.579,-3.835 -10.372,-8.85 v 0 h -39.74 c -0.793,5.015 -5.135,8.85 -10.373,8.85 v 0 c -0.611,0 -1.209,-0.055 -1.791,-0.154 v 0 l -12.344,37.993 c 3.373,1.747 5.68,5.268 5.68,9.329 v 0 c 0,1.764 -0.437,3.424 -1.205,4.883 v 0 l 32.482,23.6 c 1.9,-1.897 4.524,-3.07 7.421,-3.07 v 0 c 2.897,0 5.52,1.173 7.42,3.07"
               style="fill:url(#linearGradient224);stroke:none"
               id="path226" />
          </g>
        </g>
      </g>
    </g>
  </g>
  <g
     id="g230"
     transform="matrix(1.3333333,0,0,-1.3333333,768.79733,384)">
    <g
       id="g232">
      <g
         id="g234"
         clip-path="url(#clipPath238)">
        <g
           id="g240"
           transform="translate(153.2701,150.7332)">
          <path
             d="m 0,0 c -0.312,0.054 -0.633,0.083 -0.961,0.083 -2.81,0 -5.14,-2.058 -5.565,-4.749 h -21.323 c -0.425,2.691 -2.754,4.749 -5.565,4.749 -0.328,0 -0.648,-0.029 -0.961,-0.083 l -6.623,20.385 c 1.81,0.938 3.047,2.826 3.047,5.006 0,0.946 -0.234,1.837 -0.646,2.62 l 17.428,12.662 c 1.02,-1.018 2.427,-1.647 3.982,-1.647 1.554,0 2.961,0.629 3.981,1.647 L 4.222,28.011 C 3.81,27.228 3.576,26.337 3.576,25.391 c 0,-2.18 1.237,-4.068 3.048,-5.006 z m 9.211,31.026 c -1.528,0 -2.913,-0.609 -3.928,-1.596 l -17.448,12.677 c 0.391,0.767 0.613,1.634 0.613,2.554 0,3.112 -2.523,5.635 -5.635,5.635 -3.113,0 -5.636,-2.523 -5.636,-5.635 0,-0.92 0.222,-1.787 0.613,-2.554 L -39.658,29.43 c -1.015,0.987 -2.4,1.596 -3.928,1.596 -3.112,0 -5.635,-2.523 -5.635,-5.635 0,-3.113 2.523,-5.636 5.635,-5.636 0.308,0 0.611,0.026 0.905,0.074 l 6.629,-20.401 c -1.783,-0.947 -2.997,-2.821 -2.997,-4.98 0,-3.112 2.523,-5.635 5.635,-5.635 2.811,0 5.14,2.058 5.565,4.749 h 21.323 c 0.425,-2.691 2.755,-4.749 5.565,-4.749 3.112,0 5.635,2.523 5.635,5.635 0,2.159 -1.214,4.033 -2.997,4.98 l 6.629,20.401 c 0.295,-0.048 0.597,-0.074 0.905,-0.074 3.112,0 5.635,2.523 5.635,5.636 0,3.112 -2.523,5.635 -5.635,5.635"
             style="fill:#231f20;fill-opacity:1;fill-rule:nonzero;stroke:none"
             id="path242" />
        </g>
        <g
           id="g244"
           transform="translate(159.8936,143.1975)">
          <path
             d="m 0,0 c -0.433,0.074 -0.877,0.115 -1.331,0.115 -3.894,0 -7.121,-2.851 -7.71,-6.579 h -29.54 c -0.589,3.728 -3.816,6.579 -7.71,6.579 -0.454,0 -0.898,-0.041 -1.331,-0.115 l -9.176,28.241 c 2.508,1.299 4.222,3.915 4.222,6.934 0,1.311 -0.324,2.545 -0.895,3.63 l 24.144,17.542 c 1.413,-1.41 3.363,-2.282 5.516,-2.282 2.154,0 4.103,0.872 5.516,2.282 L 5.849,38.805 C 5.278,37.72 4.954,36.486 4.954,35.175 c 0,-3.019 1.714,-5.635 4.222,-6.934 z m 12.761,42.982 c -2.117,0 -4.035,-0.843 -5.441,-2.211 l -24.173,17.562 c 0.542,1.063 0.849,2.264 0.849,3.539 0,4.311 -3.495,7.806 -7.807,7.806 -4.311,0 -7.807,-3.495 -7.807,-7.806 0,-1.275 0.307,-2.476 0.849,-3.539 L -54.941,40.771 c -1.407,1.368 -3.325,2.211 -5.441,2.211 -4.312,0 -7.807,-3.495 -7.807,-7.807 0,-4.311 3.495,-7.806 7.807,-7.806 0.427,0 0.845,0.035 1.253,0.101 l 9.184,-28.263 c -2.47,-1.311 -4.153,-3.908 -4.153,-6.898 0,-4.312 3.496,-7.807 7.807,-7.807 3.894,0 7.121,2.851 7.71,6.579 h 29.54 c 0.589,-3.728 3.816,-6.579 7.71,-6.579 4.312,0 7.807,3.495 7.807,7.807 0,2.99 -1.683,5.587 -4.152,6.898 l 9.183,28.263 c 0.408,-0.066 0.827,-0.101 1.254,-0.101 4.311,0 7.806,3.495 7.806,7.806 0,4.312 -3.495,7.807 -7.806,7.807"
             style="fill:#231f20;fill-opacity:1;fill-rule:nonzero;stroke:none"
             id="path246" />
        </g>
        <g
           id="g248"
           transform="translate(75.5412,83.3975)">
          <path
             d="m 0,0 -2.274,-5.626 h 4.628 z m 6.664,-15.881 c -0.239,0.758 -0.679,1.756 -0.998,2.514 l -0.798,1.836 h -9.536 l -1.237,-2.634 c -0.32,-0.719 -0.519,-1.157 -0.599,-1.716 h -7.621 c 1.037,1.756 2.115,3.711 3.232,6.066 L -0.599,11.931 H 1.517 L 12.25,-9.815 c 1.077,-2.275 2.395,-4.43 3.392,-6.066 z"
             style="fill:#231f20;fill-opacity:1;fill-rule:nonzero;stroke:none"
             id="path250" />
        </g>
        <g
           id="g252"
           transform="translate(91.9767,67.5166)">
          <path
             d="m 0,0 c 1.356,1.596 2.992,3.99 4.589,6.345 l 4.708,7.461 -4.668,7.302 c -1.557,2.434 -3.152,4.829 -4.27,6.225 h 9.337 c 0.639,-1.277 1.077,-2.075 1.756,-3.272 l 2.114,-3.751 2.275,3.911 c 0.638,1.157 1.197,2.194 1.636,3.112 h 8.619 c -1.238,-1.517 -2.953,-3.99 -4.19,-5.866 L 17.357,14.404 22.226,6.982 C 23.941,4.27 25.937,1.396 27.133,0 h -9.536 c -0.2,0.519 -0.718,1.517 -1.676,3.112 L 13.128,7.781 10.175,2.674 C 9.178,0.798 8.858,0.399 8.818,0 Z"
             style="fill:#231f20;fill-opacity:1;fill-rule:nonzero;stroke:none"
             id="path254" />
        </g>
        <g
           id="g256"
           transform="translate(120.6623,67.5166)">
          <path
             d="m 0,0 c 0.399,1.437 0.878,4.35 1.437,7.223 l 3.95,20.589 h 1.955 l 9.616,-16.879 9.896,16.879 h 2.035 L 32.121,7.183 C 32.52,4.509 33.118,1.756 33.677,0 h -8.658 c 0,1.955 -1.038,6.624 -1.596,10.733 L 16.839,-0.438 H 15.442 L 8.898,10.813 C 8.061,6.624 7.143,1.915 7.103,0 Z"
             style="fill:#231f20;fill-opacity:1;fill-rule:nonzero;stroke:none"
             id="path258" />
        </g>
        <g
           id="g260"
           transform="translate(171.6535,73.582)">
          <path
             d="m 0,0 c 4.029,0 7.062,3.392 7.062,7.621 0,4.23 -3.033,7.621 -7.062,7.621 -4.03,0 -7.023,-3.391 -7.023,-7.621 C -7.023,3.392 -4.03,0 0,0 m 0,21.786 c 8.578,0 14.923,-6.345 14.923,-14.165 C 14.923,-0.24 8.578,-6.584 0,-6.584 c -8.539,0 -14.884,6.344 -14.884,14.205 0,7.82 6.345,14.165 14.884,14.165"
             style="fill:#231f20;fill-opacity:1;fill-rule:nonzero;stroke:none"
             id="path262" />
        </g>
        <g
           id="g264"
           transform="translate(199.1408,74.1006)">
          <path
             d="m 0,0 h 3.392 c 2.754,0 5.866,0.04 7.102,0.119 V -6.743 C 9.258,-6.664 6.146,-6.584 3.392,-6.584 H -7.98 c 0.08,2.194 0.16,5.347 0.16,7.143 v 13.047 c 0,2.753 -0.08,5.946 -0.16,7.143 H 0.16 C 0.08,19.552 0,16.359 0,13.606 Z"
             style="fill:#231f20;fill-opacity:1;fill-rule:nonzero;stroke:none"
             id="path266" />
        </g>
        <g
           id="g268"
           transform="translate(168.1163,133.8425)">
          <path
             d="m 0,0 c -0.582,0.1 -1.18,0.155 -1.791,0.155 -5.238,0 -9.58,-3.835 -10.372,-8.851 h -39.741 c -0.792,5.016 -5.134,8.851 -10.372,8.851 -0.611,0 -1.209,-0.055 -1.791,-0.155 l -12.345,37.993 c 3.374,1.748 5.68,5.268 5.68,9.329 0,1.764 -0.436,3.424 -1.204,4.884 l 32.482,23.599 c 1.9,-1.897 4.523,-3.07 7.42,-3.07 2.898,0 5.521,1.173 7.421,3.07 L 7.869,52.206 c -0.768,-1.46 -1.205,-3.12 -1.205,-4.884 0,-4.061 2.307,-7.581 5.681,-9.329 z m 17.167,57.825 c -2.847,0 -5.428,-1.135 -7.32,-2.974 l -32.519,23.627 c 0.728,1.429 1.141,3.046 1.141,4.76 0,5.8 -4.702,10.503 -10.503,10.503 -5.8,0 -10.502,-4.703 -10.502,-10.503 0,-1.714 0.413,-3.331 1.141,-4.76 L -73.914,54.851 c -1.892,1.839 -4.473,2.974 -7.32,2.974 -5.801,0 -10.503,-4.702 -10.503,-10.503 0,-5.8 4.702,-10.502 10.503,-10.502 0.574,0 1.137,0.048 1.686,0.136 l 12.355,-38.023 c -3.323,-1.763 -5.586,-5.257 -5.586,-9.281 0,-5.8 4.702,-10.502 10.503,-10.502 5.238,0 9.58,3.835 10.372,8.851 h 39.741 c 0.792,-5.016 5.134,-8.851 10.372,-8.851 5.801,0 10.503,4.702 10.503,10.502 0,4.024 -2.264,7.518 -5.586,9.281 l 12.355,38.023 c 0.549,-0.088 1.112,-0.136 1.686,-0.136 5.801,0 10.503,4.702 10.503,10.502 0,5.801 -4.702,10.503 -10.503,10.503"
             style="fill:#231f20;fill-opacity:1;fill-rule:nonzero;stroke:none"
             id="path270" />
        </g>
      </g>
    </g>
  </g>
  <g
     id="g274"
     transform="matrix(1.3333333,0,0,-1.3333333,1153.196,384)">
    <path
       d="M 0,0 H 273.299 V 288 H 0 Z"
       style="fill:#000000;fill-opacity:1;fill-rule:nonzero;stroke:none"
       id="path276" />
    <g
       id="g278">
      <g
         id="g280"
         clip-path="url(#clipPath284)">
        <g
           id="g286">
          <g
             id="g288">
            <path
               d="m 130.448,195.394 c 0,-0.92 0.221,-1.787 0.612,-2.554 v 0 l -17.449,-12.677 c -1.014,0.987 -2.399,1.596 -3.926,1.596 v 0 c -3.112,0 -5.636,-2.523 -5.636,-5.635 v 0 c 0,-3.113 2.524,-5.635 5.636,-5.635 v 0 c 0.308,0 0.61,0.025 0.904,0.073 v 0 l 6.629,-20.402 c -1.782,-0.945 -2.997,-2.82 -2.997,-4.979 v 0 c 0,-3.112 2.522,-5.635 5.635,-5.635 v 0 c 2.81,0 5.141,2.058 5.565,4.749 v 0 h 21.323 c 0.425,-2.691 2.755,-4.749 5.566,-4.749 v 0 c 3.112,0 5.635,2.523 5.635,5.635 v 0 c 0,2.159 -1.215,4.034 -2.997,4.979 v 0 l 6.628,20.402 c 0.294,-0.048 0.597,-0.073 0.905,-0.073 v 0 c 3.113,0 5.635,2.522 5.635,5.635 v 0 c 0,3.112 -2.522,5.635 -5.635,5.635 v 0 c -1.528,0 -2.913,-0.609 -3.927,-1.596 v 0 l -17.448,12.677 c 0.39,0.767 0.612,1.634 0.612,2.554 v 0 c 0,3.112 -2.523,5.635 -5.635,5.635 v 0 c -3.113,0 -5.635,-2.523 -5.635,-5.635 m 9.616,-3.988 17.428,-12.662 c -0.411,-0.783 -0.646,-1.674 -0.646,-2.62 v 0 c 0,-2.179 1.237,-4.068 3.048,-5.006 v 0 l -6.624,-20.385 c -0.312,0.054 -0.633,0.084 -0.96,0.084 v 0 c -2.811,0 -5.141,-2.059 -5.566,-4.75 v 0 h -21.323 c -0.424,2.691 -2.755,4.75 -5.565,4.75 v 0 c -0.328,0 -0.648,-0.03 -0.961,-0.084 v 0 l -6.624,20.385 c 1.811,0.938 3.049,2.827 3.049,5.006 v 0 c 0,0.946 -0.234,1.837 -0.646,2.62 v 0 l 17.427,12.662 c 1.02,-1.018 2.427,-1.647 3.982,-1.647 v 0 c 1.554,0 2.962,0.629 3.981,1.647"
               style="fill:url(#linearGradient300);stroke:none"
               id="path302" />
          </g>
        </g>
      </g>
    </g>
    <g
       id="g304">
      <g
         id="g306"
         clip-path="url(#clipPath310)">
        <g
           id="g312">
          <g
             id="g314">
            <path
               d="m 128.276,205.07 c 0,-1.275 0.307,-2.476 0.849,-3.539 v 0 l -24.172,-17.562 c -1.407,1.367 -3.325,2.21 -5.442,2.21 v 0 c -4.312,0 -7.806,-3.494 -7.806,-7.806 v 0 c 0,-4.312 3.494,-7.807 7.806,-7.807 v 0 c 0.427,0 0.845,0.035 1.254,0.102 v 0 l 9.184,-28.264 c -2.47,-1.31 -4.153,-3.908 -4.153,-6.898 v 0 c 0,-4.311 3.496,-7.807 7.807,-7.807 v 0 c 3.894,0 7.121,2.851 7.71,6.58 v 0 h 29.54 c 0.588,-3.729 3.816,-6.58 7.71,-6.58 v 0 c 4.311,0 7.806,3.496 7.806,7.807 v 0 c 0,2.99 -1.683,5.588 -4.152,6.898 v 0 l 9.183,28.264 c 0.409,-0.067 0.828,-0.102 1.254,-0.102 v 0 c 4.312,0 7.807,3.495 7.807,7.807 v 0 c 0,4.312 -3.495,7.806 -7.807,7.806 v 0 c -2.117,0 -4.035,-0.843 -5.441,-2.21 v 0 l -24.172,17.562 c 0.541,1.063 0.848,2.264 0.848,3.539 v 0 c 0,4.31 -3.494,7.806 -7.806,7.806 v 0 c -4.312,0 -7.807,-3.496 -7.807,-7.806 m 13.323,-5.526 24.144,-17.541 c -0.571,-1.085 -0.895,-2.32 -0.895,-3.63 v 0 c 0,-3.019 1.714,-5.636 4.222,-6.935 v 0 l -9.176,-28.241 c -0.433,0.075 -0.878,0.115 -1.331,0.115 v 0 c -3.894,0 -7.122,-2.85 -7.71,-6.579 v 0 h -29.54 c -0.589,3.729 -3.816,6.579 -7.71,6.579 v 0 c -0.454,0 -0.899,-0.04 -1.332,-0.115 v 0 l -9.175,28.241 c 2.507,1.299 4.222,3.916 4.222,6.935 v 0 c 0,1.31 -0.324,2.545 -0.896,3.63 v 0 l 24.145,17.541 c 1.413,-1.41 3.362,-2.282 5.516,-2.282 v 0 c 2.153,0 4.103,0.872 5.516,2.282"
               style="fill:url(#linearGradient326);stroke:none"
               id="path328" />
          </g>
        </g>
      </g>
    </g>
    <g
       id="g330">
      <g
         id="g332"
         clip-path="url(#clipPath336)">
        <g
           id="g338"
           transform="translate(75.5412,83.3975)">
          <path
             d="m 0,0 -2.274,-5.626 h 4.628 z m 6.664,-15.881 c -0.239,0.758 -0.679,1.756 -0.998,2.514 l -0.798,1.836 h -9.536 l -1.237,-2.634 c -0.32,-0.719 -0.519,-1.157 -0.599,-1.716 h -7.621 c 1.037,1.756 2.115,3.711 3.232,6.066 L -0.599,11.931 H 1.517 L 12.25,-9.815 c 1.077,-2.275 2.395,-4.43 3.392,-6.066 z"
             style="fill:#ffffff;fill-opacity:1;fill-rule:nonzero;stroke:none"
             id="path340" />
        </g>
        <g
           id="g342"
           transform="translate(91.9767,67.5166)">
          <path
             d="m 0,0 c 1.356,1.596 2.992,3.99 4.589,6.345 l 4.708,7.461 -4.668,7.302 c -1.557,2.434 -3.152,4.829 -4.27,6.225 h 9.337 c 0.639,-1.277 1.077,-2.075 1.756,-3.272 l 2.114,-3.751 2.275,3.911 c 0.638,1.157 1.197,2.194 1.636,3.112 h 8.619 c -1.238,-1.517 -2.953,-3.99 -4.19,-5.866 L 17.357,14.404 22.226,6.982 C 23.941,4.27 25.937,1.396 27.133,0 h -9.536 c -0.2,0.519 -0.718,1.517 -1.676,3.112 L 13.128,7.781 10.175,2.674 C 9.178,0.798 8.858,0.399 8.818,0 Z"
             style="fill:#ffffff;fill-opacity:1;fill-rule:nonzero;stroke:none"
             id="path344" />
        </g>
        <g
           id="g346"
           transform="translate(120.6623,67.5166)">
          <path
             d="m 0,0 c 0.399,1.437 0.878,4.35 1.437,7.223 l 3.95,20.589 h 1.955 l 9.616,-16.879 9.896,16.879 h 2.035 L 32.121,7.183 C 32.52,4.509 33.118,1.756 33.677,0 h -8.658 c 0,1.955 -1.038,6.624 -1.596,10.733 L 16.839,-0.438 H 15.442 L 8.898,10.813 C 8.061,6.624 7.143,1.915 7.103,0 Z"
             style="fill:#ffffff;fill-opacity:1;fill-rule:nonzero;stroke:none"
             id="path348" />
        </g>
        <g
           id="g350"
           transform="translate(171.6535,73.582)">
          <path
             d="m 0,0 c 4.029,0 7.062,3.392 7.062,7.621 0,4.23 -3.033,7.621 -7.062,7.621 -4.03,0 -7.023,-3.391 -7.023,-7.621 C -7.023,3.392 -4.03,0 0,0 m 0,21.786 c 8.578,0 14.923,-6.345 14.923,-14.165 C 14.923,-0.24 8.578,-6.584 0,-6.584 c -8.539,0 -14.884,6.344 -14.884,14.205 0,7.82 6.345,14.165 14.884,14.165"
             style="fill:#ffffff;fill-opacity:1;fill-rule:nonzero;stroke:none"
             id="path352" />
        </g>
        <g
           id="g354"
           transform="translate(199.1408,74.1006)">
          <path
             d="m 0,0 h 3.392 c 2.754,0 5.866,0.04 7.102,0.119 V -6.743 C 9.258,-6.664 6.146,-6.584 3.392,-6.584 H -7.98 c 0.08,2.194 0.16,5.347 0.16,7.143 v 13.047 c 0,2.753 -0.08,5.946 -0.16,7.143 H 0.16 C 0.08,19.552 0,16.359 0,13.606 Z"
             style="fill:#ffffff;fill-opacity:1;fill-rule:nonzero;stroke:none"
             id="path356" />
        </g>
      </g>
    </g>
    <g
       id="g358">
      <g
         id="g360"
         clip-path="url(#clipPath364)">
        <g
           id="g366">
          <g
             id="g368">
            <path
               d="m 125.58,217.08 c 0,-1.714 0.414,-3.331 1.142,-4.76 v 0 l -32.52,-23.627 c -1.892,1.84 -4.473,2.975 -7.32,2.975 v 0 c -5.8,0 -10.503,-4.703 -10.503,-10.503 v 0 c 0,-5.801 4.703,-10.503 10.503,-10.503 v 0 c 0.575,0 1.137,0.048 1.687,0.136 v 0 l 12.354,-38.022 c -3.322,-1.764 -5.586,-5.258 -5.586,-9.281 v 0 c 0,-5.8 4.703,-10.503 10.503,-10.503 v 0 c 5.238,0 9.581,3.836 10.373,8.852 v 0 h 39.74 c 0.792,-5.016 5.134,-8.852 10.372,-8.852 v 0 c 5.801,0 10.503,4.703 10.503,10.503 v 0 c 0,4.023 -2.263,7.517 -5.586,9.281 v 0 l 12.354,38.022 c 0.55,-0.088 1.113,-0.136 1.687,-0.136 v 0 c 5.801,0 10.503,4.702 10.503,10.503 v 0 c 0,5.8 -4.702,10.503 -10.503,10.503 v 0 c -2.847,0 -5.428,-1.135 -7.32,-2.975 v 0 l -32.519,23.627 c 0.729,1.429 1.142,3.046 1.142,4.76 v 0 c 0,5.8 -4.703,10.503 -10.503,10.503 v 0 c -5.801,0 -10.503,-4.703 -10.503,-10.503 m 17.923,-7.432 32.482,-23.6 c -0.768,-1.459 -1.204,-3.119 -1.204,-4.883 v 0 c 0,-4.061 2.307,-7.582 5.68,-9.329 v 0 l -12.345,-37.993 c -0.582,0.099 -1.18,0.154 -1.791,0.154 v 0 c -5.238,0 -9.579,-3.835 -10.372,-8.85 v 0 h -39.74 c -0.793,5.015 -5.135,8.85 -10.373,8.85 v 0 c -0.611,0 -1.209,-0.055 -1.791,-0.154 v 0 l -12.344,37.993 c 3.373,1.747 5.68,5.268 5.68,9.329 v 0 c 0,1.764 -0.437,3.424 -1.205,4.883 v 0 l 32.482,23.6 c 1.9,-1.897 4.524,-3.07 7.421,-3.07 v 0 c 2.897,0 5.52,1.173 7.42,3.07"
               style="fill:url(#linearGradient380);stroke:none"
               id="path382" />
          </g>
        </g>
      </g>
    </g>
  </g>
  <g
     id="g386"
     transform="matrix(1.3333333,0,0,-1.3333333,1537.5947,384)">
    <path
       d="M 0,0 H 273.299 V 288 H 0 Z"
       style="fill:#000000;fill-opacity:1;fill-rule:nonzero;stroke:none"
       id="path388" />
    <g
       id="g390">
      <g
         id="g392"
         clip-path="url(#clipPath396)">
        <g
           id="g398"
           transform="translate(153.2701,150.7332)">
          <path
             d="m 0,0 c -0.312,0.054 -0.633,0.083 -0.961,0.083 -2.81,0 -5.14,-2.058 -5.565,-4.749 h -21.323 c -0.425,2.691 -2.754,4.749 -5.565,4.749 -0.328,0 -0.648,-0.029 -0.961,-0.083 l -6.623,20.385 c 1.81,0.938 3.047,2.826 3.047,5.006 0,0.946 -0.234,1.837 -0.646,2.62 l 17.428,12.662 c 1.02,-1.018 2.427,-1.647 3.982,-1.647 1.554,0 2.961,0.629 3.981,1.647 L 4.222,28.011 C 3.81,27.228 3.576,26.337 3.576,25.391 c 0,-2.18 1.237,-4.068 3.048,-5.006 z m 9.211,31.026 c -1.528,0 -2.913,-0.609 -3.928,-1.596 l -17.448,12.677 c 0.391,0.767 0.613,1.634 0.613,2.554 0,3.112 -2.523,5.635 -5.635,5.635 -3.113,0 -5.636,-2.523 -5.636,-5.635 0,-0.92 0.222,-1.787 0.613,-2.554 L -39.658,29.43 c -1.015,0.987 -2.4,1.596 -3.928,1.596 -3.112,0 -5.635,-2.523 -5.635,-5.635 0,-3.113 2.523,-5.636 5.635,-5.636 0.308,0 0.611,0.026 0.905,0.074 l 6.629,-20.401 c -1.783,-0.947 -2.997,-2.821 -2.997,-4.98 0,-3.112 2.523,-5.635 5.635,-5.635 2.811,0 5.14,2.058 5.565,4.749 h 21.323 c 0.425,-2.691 2.755,-4.749 5.565,-4.749 3.112,0 5.635,2.523 5.635,5.635 0,2.159 -1.214,4.033 -2.997,4.98 l 6.629,20.401 c 0.295,-0.048 0.597,-0.074 0.905,-0.074 3.112,0 5.635,2.523 5.635,5.636 0,3.112 -2.523,5.635 -5.635,5.635"
             style="fill:#ffffff;fill-opacity:1;fill-rule:nonzero;stroke:none"
             id="path400" />
        </g>
        <g
           id="g402"
           transform="translate(159.8936,143.1975)">
          <path
             d="m 0,0 c -0.433,0.074 -0.877,0.115 -1.331,0.115 -3.894,0 -7.121,-2.851 -7.71,-6.579 h -29.54 c -0.589,3.728 -3.816,6.579 -7.71,6.579 -0.454,0 -0.898,-0.041 -1.331,-0.115 l -9.176,28.241 c 2.508,1.299 4.222,3.915 4.222,6.934 0,1.311 -0.324,2.545 -0.895,3.63 l 24.144,17.542 c 1.413,-1.41 3.363,-2.282 5.516,-2.282 2.154,0 4.103,0.872 5.516,2.282 L 5.849,38.805 C 5.278,37.72 4.954,36.486 4.954,35.175 c 0,-3.019 1.714,-5.635 4.222,-6.934 z m 12.761,42.982 c -2.117,0 -4.035,-0.843 -5.441,-2.211 l -24.173,17.562 c 0.542,1.063 0.849,2.264 0.849,3.539 0,4.311 -3.495,7.806 -7.807,7.806 -4.311,0 -7.807,-3.495 -7.807,-7.806 0,-1.275 0.307,-2.476 0.849,-3.539 L -54.941,40.771 c -1.407,1.368 -3.325,2.211 -5.441,2.211 -4.312,0 -7.807,-3.495 -7.807,-7.807 0,-4.311 3.495,-7.806 7.807,-7.806 0.427,0 0.845,0.035 1.253,0.101 l 9.184,-28.263 c -2.47,-1.311 -4.153,-3.908 -4.153,-6.898 0,-4.312 3.496,-7.807 7.807,-7.807 3.894,0 7.121,2.851 7.71,6.579 h 29.54 c 0.589,-3.728 3.816,-6.579 7.71,-6.579 4.312,0 7.807,3.495 7.807,7.807 0,2.99 -1.683,5.587 -4.152,6.898 l 9.183,28.263 c 0.408,-0.066 0.827,-0.101 1.254,-0.101 4.311,0 7.806,3.495 7.806,7.806 0,4.312 -3.495,7.807 -7.806,7.807"
             style="fill:#ffffff;fill-opacity:1;fill-rule:nonzero;stroke:none"
             id="path404" />
        </g>
        <g
           id="g406"
           transform="translate(75.5412,83.3975)">
          <path
             d="m 0,0 -2.274,-5.626 h 4.628 z m 6.664,-15.881 c -0.239,0.758 -0.679,1.756 -0.998,2.514 l -0.798,1.836 h -9.536 l -1.237,-2.634 c -0.32,-0.719 -0.519,-1.157 -0.599,-1.716 h -7.621 c 1.037,1.756 2.115,3.711 3.232,6.066 L -0.599,11.931 H 1.517 L 12.25,-9.815 c 1.077,-2.275 2.395,-4.43 3.392,-6.066 z"
             style="fill:#ffffff;fill-opacity:1;fill-rule:nonzero;stroke:none"
             id="path408" />
        </g>
        <g
           id="g410"
           transform="translate(91.9767,67.5166)">
          <path
             d="m 0,0 c 1.356,1.596 2.992,3.99 4.589,6.345 l 4.708,7.461 -4.668,7.302 c -1.557,2.434 -3.152,4.829 -4.27,6.225 h 9.337 c 0.639,-1.277 1.077,-2.075 1.756,-3.272 l 2.114,-3.751 2.275,3.911 c 0.638,1.157 1.197,2.194 1.636,3.112 h 8.619 c -1.238,-1.517 -2.953,-3.99 -4.19,-5.866 L 17.357,14.404 22.226,6.982 C 23.941,4.27 25.937,1.396 27.133,0 h -9.536 c -0.2,0.519 -0.718,1.517 -1.676,3.112 L 13.128,7.781 10.175,2.674 C 9.178,0.798 8.858,0.399 8.818,0 Z"
             style="fill:#ffffff;fill-opacity:1;fill-rule:nonzero;stroke:none"
             id="path412" />
        </g>
        <g
           id="g414"
           transform="translate(120.6623,67.5166)">
          <path
             d="m 0,0 c 0.399,1.437 0.878,4.35 1.437,7.223 l 3.95,20.589 h 1.955 l 9.616,-16.879 9.896,16.879 h 2.035 L 32.121,7.183 C 32.52,4.509 33.118,1.756 33.677,0 h -8.658 c 0,1.955 -1.038,6.624 -1.596,10.733 L 16.839,-0.438 H 15.442 L 8.898,10.813 C 8.061,6.624 7.143,1.915 7.103,0 Z"
             style="fill:#ffffff;fill-opacity:1;fill-rule:nonzero;stroke:none"
             id="path416" />
        </g>
        <g
           id="g418"
           transform="translate(171.6535,73.582)">
          <path
             d="m 0,0 c 4.029,0 7.062,3.392 7.062,7.621 0,4.23 -3.033,7.621 -7.062,7.621 -4.03,0 -7.023,-3.391 -7.023,-7.621 C -7.023,3.392 -4.03,0 0,0 m 0,21.786 c 8.578,0 14.923,-6.345 14.923,-14.165 C 14.923,-0.24 8.578,-6.584 0,-6.584 c -8.539,0 -14.884,6.344 -14.884,14.205 0,7.82 6.345,14.165 14.884,14.165"
             style="fill:#ffffff;fill-opacity:1;fill-rule:nonzero;stroke:none"
             id="path420" />
        </g>
        <g
           id="g422"
           transform="translate(199.1408,74.1006)">
          <path
             d="m 0,0 h 3.392 c 2.754,0 5.866,0.04 7.102,0.119 V -6.743 C 9.258,-6.664 6.146,-6.584 3.392,-6.584 H -7.98 c 0.08,2.194 0.16,5.347 0.16,7.143 v 13.047 c 0,2.753 -0.08,5.946 -0.16,7.143 H 0.16 C 0.08,19.552 0,16.359 0,13.606 Z"
             style="fill:#ffffff;fill-opacity:1;fill-rule:nonzero;stroke:none"
             id="path424" />
        </g>
        <g
           id="g426"
           transform="translate(168.1163,133.8425)">
          <path
             d="m 0,0 c -0.582,0.1 -1.18,0.155 -1.791,0.155 -5.238,0 -9.58,-3.835 -10.372,-8.851 h -39.741 c -0.792,5.016 -5.134,8.851 -10.372,8.851 -0.611,0 -1.209,-0.055 -1.791,-0.155 l -12.345,37.993 c 3.374,1.748 5.68,5.268 5.68,9.329 0,1.764 -0.436,3.424 -1.204,4.884 l 32.482,23.599 c 1.9,-1.897 4.523,-3.07 7.42,-3.07 2.898,0 5.521,1.173 7.421,3.07 L 7.869,52.206 c -0.768,-1.46 -1.205,-3.12 -1.205,-4.884 0,-4.061 2.307,-7.581 5.681,-9.329 z m 17.167,57.825 c -2.847,0 -5.428,-1.135 -7.32,-2.974 l -32.519,23.627 c 0.728,1.429 1.141,3.046 1.141,4.76 0,5.8 -4.702,10.503 -10.503,10.503 -5.8,0 -10.502,-4.703 -10.502,-10.503 0,-1.714 0.413,-3.331 1.141,-4.76 L -73.914,54.851 c -1.892,1.839 -4.473,2.974 -7.32,2.974 -5.801,0 -10.503,-4.702 -10.503,-10.503 0,-5.8 4.702,-10.502 10.503,-10.502 0.574,0 1.137,0.048 1.686,0.136 l 12.355,-38.023 c -3.323,-1.763 -5.586,-5.257 -5.586,-9.281 0,-5.8 4.702,-10.502 10.503,-10.502 5.238,0 9.58,3.835 10.372,8.851 h 39.741 c 0.792,-5.016 5.134,-8.851 10.372,-8.851 5.801,0 10.503,4.702 10.503,10.502 0,4.024 -2.264,7.518 -5.586,9.281 l 12.355,38.023 c 0.549,-0.088 1.112,-0.136 1.686,-0.136 5.801,0 10.503,4.702 10.503,10.502 0,5.801 -4.702,10.503 -10.503,10.503"
             style="fill:#ffffff;fill-opacity:1;fill-rule:nonzero;stroke:none"
             id="path428" />
        </g>
      </g>
    </g>
  </g>
</svg>
